@startuml Samples

skin rose
skinparam classFontName Calibri
skinparam shadowing false

title Estado Simple Ortogonal Compuesto

[*] --> NeilDiamond
state NeilDiamond 

state "Neil Diamond Onstage" as NeilDiamond {
  state Dancing
  state Singing
  state Smiling
  Dancing --> Singing
  Singing --> Smiling
  Smiling --> Dancing
}

state NDoff
state "Neil Diamond in Dressing Room" as NDoff {
  state ThinkingAboutAmerica
  state WatchingGlee
  ThinkingAboutAmerica --> WatchingGlee
  WatchingGlee --> ThinkingAboutAmerica
}

NeilDiamond -Right-> NDoff : Walking
NDoff -Left-> NeilDiamond :Running

@enduml